<svg version="1.1" id="Layer_1" xmlns="http://www.w3.org/2000/svg" xmlns:xlink="http://www.w3.org/1999/xlink" x="0px" y="0px"
	 width="100px" viewBox="0 0 57 55" enable-background="new 0 0 57 55" xml:space="preserve">
        <path fill="#A55396" opacity="1.000000" stroke="none" 
            d="
        M6.900087,33.708069 
            C2.824558,21.664448 10.340869,14.188150 17.396095,7.472868 
            C21.191412,3.860425 27.657764,4.132491 33.067093,5.800358 
            C35.981335,6.698911 37.517464,9.326610 37.820827,12.295736 
            C38.410652,18.068657 38.932617,23.861456 39.125607,29.657911 
            C39.282391,34.366871 36.351875,37.427380 31.604832,37.892300 
            C26.324549,38.409439 21.020525,38.679291 15.733879,39.137974 
            C11.609802,39.495789 8.628709,38.005142 6.900087,33.708069 
        z"/>
        <path fill="#ffffff" opacity="1.000000" stroke="none" 
            d="
        M41.235519,17.744408 
            C41.058762,14.983654 40.922482,12.676764 40.781441,10.289281 
            C50.128910,12.652025 56.923679,22.001911 56.720940,31.922005 
            C56.507816,42.350174 49.051010,51.764790 39.071705,53.985100 
            C29.798012,56.048416 22.034914,53.290348 15.811241,46.188511 
            C14.998387,45.260960 13.591485,44.255028 14.293379,42.828766 
            C14.871502,41.654011 16.382992,42.191284 17.475445,42.089069 
            C22.105791,41.655827 26.747961,41.350048 31.379711,40.930393 
            C38.414539,40.293011 42.479149,35.693089 42.153057,28.625164 
            C41.992420,25.143456 41.576431,21.673531 41.235519,17.744408 
        z"/>
</svg>